<?xml version="1.0" standalone="no"?>
<!DOCTYPE svg PUBLIC "-//W3C//DTD SVG 20010904//EN"
 "http://www.w3.org/TR/2001/REC-SVG-20010904/DTD/svg10.dtd">
<svg version="1.0" xmlns="http://www.w3.org/2000/svg"
 width="700.000000pt" height="700.000000pt" viewBox="0 0 700.000000 700.000000"
 preserveAspectRatio="xMidYMid meet">
<metadata>
Created by potrace 1.14, written by Peter Selinger 2001-2017
</metadata>
<g transform="translate(0.000000,700.000000) scale(0.100000,-0.100000)"
fill="#000000" stroke="none">
<path d="M1900 2454 c0 -6 16 -72 41 -166 l10 -38 1993 0 c1096 0 1995 2 1998
5 3 3 -6 51 -20 105 l-24 100 -1999 0 c-1100 0 -1999 -3 -1999 -6z"/>
<path d="M1690 1734 c0 -6 16 -72 41 -166 l10 -38 1740 0 c1653 0 1740 1 1735
18 -3 9 -15 56 -27 105 l-21 87 -1739 0 c-957 0 -1739 -3 -1739 -6z"/>
</g>
</svg>
