<svg width="176" height="39" viewBox="0 0 176 39" fill="none" xmlns="http://www.w3.org/2000/svg">
<path d="M54.424 34.288C54.0187 34.288 53.7093 34.224 53.496 34.096C53.304 33.9893 53.176 33.8293 53.112 33.616C53.0693 33.4027 53.048 33.1467 53.048 32.848V20.144C53.048 19.8667 53.08 19.632 53.144 19.44C53.208 19.248 53.336 19.0987 53.528 18.992C53.7413 18.8853 54.0507 18.832 54.456 18.832C54.776 18.832 55.0213 18.8747 55.192 18.96C55.384 19.024 55.512 19.12 55.576 19.248C55.6613 19.376 55.7147 19.5147 55.736 19.664C55.7573 19.8133 55.768 19.952 55.768 20.08L55.704 21.552C55.9173 21.1893 56.184 20.848 56.504 20.528C56.824 20.1867 57.1973 19.888 57.624 19.632C58.0507 19.3547 58.5093 19.1413 59 18.992C59.512 18.8427 60.056 18.768 60.632 18.768C61.5707 18.768 62.4347 18.9387 63.224 19.28C64.0133 19.6 64.6853 20.08 65.24 20.72C65.816 21.3387 66.2533 22.0853 66.552 22.96C66.872 23.8347 67.032 24.8267 67.032 25.936V32.88C67.032 33.1787 67 33.4347 66.936 33.648C66.8933 33.8613 66.7653 34.0213 66.552 34.128C66.36 34.2347 66.0613 34.288 65.656 34.288C65.2293 34.288 64.9093 34.224 64.696 34.096C64.504 33.9893 64.376 33.8293 64.312 33.616C64.248 33.4027 64.216 33.1467 64.216 32.848V25.904C64.216 25.008 64.0667 24.2293 63.768 23.568C63.4693 22.9067 63.0213 22.3947 62.424 22.032C61.8267 21.648 61.0693 21.456 60.152 21.456C59.2773 21.456 58.5093 21.648 57.848 22.032C57.208 22.3947 56.7067 22.9067 56.344 23.568C56.0027 24.2293 55.832 25.008 55.832 25.904V32.88C55.832 33.1787 55.8 33.4347 55.736 33.648C55.672 33.8613 55.5333 34.0213 55.32 34.128C55.128 34.2347 54.8293 34.288 54.424 34.288ZM84.0125 34.288C83.5432 34.288 83.2018 34.192 82.9885 34C82.7965 33.808 82.6792 33.5093 82.6365 33.104L82.7645 31.504C82.5512 31.8453 82.2205 32.24 81.7725 32.688C81.3245 33.1147 80.7378 33.4987 80.0125 33.84C79.2872 34.16 78.4018 34.32 77.3565 34.32C76.3325 34.32 75.3725 34.1173 74.4765 33.712C73.6018 33.3067 72.8232 32.7413 72.1405 32.016C71.4792 31.2907 70.9565 30.4587 70.5725 29.52C70.2098 28.5813 70.0285 27.5787 70.0285 26.512C70.0285 25.4667 70.2098 24.4853 70.5725 23.568C70.9565 22.6293 71.4898 21.808 72.1725 21.104C72.8552 20.4 73.6338 19.8453 74.5085 19.44C75.4045 19.0347 76.3538 18.832 77.3565 18.832C78.2952 18.832 79.0952 18.96 79.7565 19.216C80.4178 19.4507 80.9832 19.7707 81.4525 20.176C81.9432 20.56 82.3698 20.9973 82.7325 21.488L82.6685 20.144C82.6472 19.6747 82.7432 19.344 82.9565 19.152C83.1912 18.9387 83.5538 18.832 84.0445 18.832C84.4498 18.832 84.7378 18.896 84.9085 19.024C85.1005 19.152 85.2285 19.3333 85.2925 19.568C85.3565 19.8027 85.3885 20.0907 85.3885 20.432V32.784C85.3885 33.0827 85.3565 33.3493 85.2925 33.584C85.2285 33.8187 85.1005 33.9893 84.9085 34.096C84.7165 34.224 84.4178 34.288 84.0125 34.288ZM77.8365 31.632C78.6898 31.632 79.4685 31.408 80.1725 30.96C80.8978 30.512 81.4632 29.9147 81.8685 29.168C82.2952 28.4 82.5085 27.5253 82.5085 26.544C82.5085 25.5413 82.2845 24.6667 81.8365 23.92C81.4098 23.152 80.8338 22.5547 80.1085 22.128C79.4045 21.68 78.6258 21.456 77.7725 21.456C76.7698 21.456 75.8952 21.6907 75.1485 22.16C74.4232 22.608 73.8472 23.216 73.4205 23.984C72.9938 24.752 72.7805 25.6267 72.7805 26.608C72.7805 27.568 72.9938 28.432 73.4205 29.2C73.8472 29.9467 74.4338 30.544 75.1805 30.992C75.9485 31.4187 76.8338 31.632 77.8365 31.632ZM94.5795 34.224C94.2595 34.224 94.0035 34.1707 93.8115 34.064C93.6408 33.9787 93.5022 33.8613 93.3955 33.712C93.3102 33.5413 93.2462 33.36 93.2035 33.168L88.2435 20.56C88.1368 20.24 88.0835 19.9733 88.0835 19.76C88.1048 19.5467 88.1902 19.3653 88.3395 19.216C88.5102 19.0667 88.7555 18.9387 89.0755 18.832C89.5875 18.64 89.9822 18.5973 90.2595 18.704C90.5368 18.7893 90.7608 19.0667 90.9315 19.536L94.5795 29.264L97.9715 19.76C98.0355 19.5893 98.1102 19.4293 98.1955 19.28C98.3022 19.1093 98.4515 18.9707 98.6435 18.864C98.8355 18.7573 99.0808 18.704 99.3795 18.704C99.7208 18.704 99.9768 18.7573 100.148 18.864C100.34 18.9707 100.489 19.0987 100.596 19.248C100.724 19.3973 100.809 19.5573 100.852 19.728L104.212 29.328L107.86 19.696C108.052 19.184 108.286 18.8533 108.564 18.704C108.862 18.5547 109.268 18.576 109.78 18.768C110.228 18.9173 110.526 19.1307 110.676 19.408C110.825 19.6853 110.793 20.08 110.58 20.592L105.62 33.2C105.556 33.3707 105.47 33.5413 105.364 33.712C105.278 33.8613 105.14 33.9787 104.948 34.064C104.777 34.1707 104.542 34.224 104.244 34.224C103.945 34.224 103.71 34.1813 103.54 34.096C103.369 34.0107 103.23 33.8827 103.124 33.712C103.017 33.52 102.921 33.3173 102.836 33.104L99.4115 23.248L95.9555 33.104C95.8702 33.36 95.7742 33.5733 95.6675 33.744C95.5822 33.9147 95.4542 34.032 95.2835 34.096C95.1128 34.1813 94.8782 34.224 94.5795 34.224ZM125.7 34.288C125.231 34.288 124.889 34.192 124.676 34C124.484 33.808 124.367 33.5093 124.324 33.104L124.452 31.504C124.239 31.8453 123.908 32.24 123.46 32.688C123.012 33.1147 122.425 33.4987 121.7 33.84C120.975 34.16 120.089 34.32 119.044 34.32C118.02 34.32 117.06 34.1173 116.164 33.712C115.289 33.3067 114.511 32.7413 113.828 32.016C113.167 31.2907 112.644 30.4587 112.26 29.52C111.897 28.5813 111.716 27.5787 111.716 26.512C111.716 25.4667 111.897 24.4853 112.26 23.568C112.644 22.6293 113.177 21.808 113.86 21.104C114.543 20.4 115.321 19.8453 116.196 19.44C117.092 19.0347 118.041 18.832 119.044 18.832C119.983 18.832 120.783 18.96 121.444 19.216C122.105 19.4507 122.671 19.7707 123.14 20.176C123.631 20.56 124.057 20.9973 124.42 21.488L124.356 20.144C124.335 19.6747 124.431 19.344 124.644 19.152C124.879 18.9387 125.241 18.832 125.732 18.832C126.137 18.832 126.425 18.896 126.596 19.024C126.788 19.152 126.916 19.3333 126.98 19.568C127.044 19.8027 127.076 20.0907 127.076 20.432V32.784C127.076 33.0827 127.044 33.3493 126.98 33.584C126.916 33.8187 126.788 33.9893 126.596 34.096C126.404 34.224 126.105 34.288 125.7 34.288ZM119.524 31.632C120.377 31.632 121.156 31.408 121.86 30.96C122.585 30.512 123.151 29.9147 123.556 29.168C123.983 28.4 124.196 27.5253 124.196 26.544C124.196 25.5413 123.972 24.6667 123.524 23.92C123.097 23.152 122.521 22.5547 121.796 22.128C121.092 21.68 120.313 21.456 119.46 21.456C118.457 21.456 117.583 21.6907 116.836 22.16C116.111 22.608 115.535 23.216 115.108 23.984C114.681 24.752 114.468 25.6267 114.468 26.608C114.468 27.568 114.681 28.432 115.108 29.2C115.535 29.9467 116.121 30.544 116.868 30.992C117.636 31.4187 118.521 31.632 119.524 31.632ZM138.187 34.32C137.184 34.32 136.331 34.224 135.627 34.032C134.944 33.84 134.379 33.5413 133.931 33.136C133.483 32.7307 133.163 32.208 132.971 31.568C132.779 30.9067 132.683 30.096 132.683 29.136V14.992C132.683 14.6933 132.715 14.4373 132.779 14.224C132.843 14.0107 132.971 13.8507 133.163 13.744C133.355 13.616 133.654 13.552 134.059 13.552C134.464 13.552 134.774 13.616 134.987 13.744C135.2 13.8507 135.339 14.0107 135.403 14.224C135.467 14.416 135.499 14.6613 135.499 14.96V29.136C135.499 29.6907 135.542 30.1387 135.627 30.48C135.734 30.8 135.883 31.0453 136.075 31.216C136.288 31.3867 136.566 31.4933 136.907 31.536C137.248 31.5787 137.664 31.6 138.155 31.6C138.496 31.6 138.774 31.632 138.987 31.696C139.2 31.76 139.36 31.888 139.467 32.08C139.574 32.272 139.627 32.56 139.627 32.944C139.627 33.3493 139.563 33.6587 139.435 33.872C139.328 34.064 139.158 34.1813 138.923 34.224C138.71 34.288 138.464 34.32 138.187 34.32ZM131.019 19.184L134.091 19.216L138.539 19.152C138.838 19.152 139.094 19.184 139.307 19.248C139.52 19.2907 139.68 19.4187 139.787 19.632C139.915 19.824 139.979 20.1227 139.979 20.528C139.979 20.9333 139.926 21.2427 139.819 21.456C139.712 21.648 139.552 21.776 139.339 21.84C139.126 21.904 138.87 21.936 138.571 21.936L134.187 21.872L130.955 21.904C130.507 21.904 130.198 21.7973 130.027 21.584C129.878 21.3707 129.803 21.0187 129.803 20.528C129.803 20.0587 129.899 19.7173 130.091 19.504C130.283 19.2907 130.592 19.184 131.019 19.184ZM156.106 34.288C155.637 34.288 155.296 34.192 155.082 34C154.89 33.808 154.773 33.5093 154.73 33.104L154.858 31.504C154.645 31.8453 154.314 32.24 153.866 32.688C153.418 33.1147 152.832 33.4987 152.106 33.84C151.381 34.16 150.496 34.32 149.45 34.32C148.426 34.32 147.466 34.1173 146.57 33.712C145.696 33.3067 144.917 32.7413 144.234 32.016C143.573 31.2907 143.05 30.4587 142.666 29.52C142.304 28.5813 142.122 27.5787 142.122 26.512C142.122 25.4667 142.304 24.4853 142.666 23.568C143.05 22.6293 143.584 21.808 144.266 21.104C144.949 20.4 145.728 19.8453 146.602 19.44C147.498 19.0347 148.448 18.832 149.45 18.832C150.389 18.832 151.189 18.96 151.85 19.216C152.512 19.4507 153.077 19.7707 153.546 20.176C154.037 20.56 154.464 20.9973 154.826 21.488L154.762 20.144C154.741 19.6747 154.837 19.344 155.05 19.152C155.285 18.9387 155.648 18.832 156.138 18.832C156.544 18.832 156.832 18.896 157.002 19.024C157.194 19.152 157.322 19.3333 157.386 19.568C157.45 19.8027 157.482 20.0907 157.482 20.432V32.784C157.482 33.0827 157.45 33.3493 157.386 33.584C157.322 33.8187 157.194 33.9893 157.002 34.096C156.81 34.224 156.512 34.288 156.106 34.288ZM149.93 31.632C150.784 31.632 151.562 31.408 152.266 30.96C152.992 30.512 153.557 29.9147 153.962 29.168C154.389 28.4 154.602 27.5253 154.602 26.544C154.602 25.5413 154.378 24.6667 153.93 23.92C153.504 23.152 152.928 22.5547 152.202 22.128C151.498 21.68 150.72 21.456 149.866 21.456C148.864 21.456 147.989 21.6907 147.242 22.16C146.517 22.608 145.941 23.216 145.514 23.984C145.088 24.752 144.874 25.6267 144.874 26.608C144.874 27.568 145.088 28.432 145.514 29.2C145.941 29.9467 146.528 30.544 147.274 30.992C148.042 31.4187 148.928 31.632 149.93 31.632ZM162.865 34.32C162.46 34.32 162.151 34.256 161.937 34.128C161.745 34.0213 161.617 33.8613 161.553 33.648C161.489 33.4347 161.457 33.1787 161.457 32.88V20.24C161.457 19.9413 161.489 19.6853 161.553 19.472C161.617 19.2587 161.745 19.0987 161.937 18.992C162.151 18.8853 162.471 18.832 162.897 18.832C163.303 18.832 163.601 18.896 163.793 19.024C163.985 19.1307 164.113 19.2907 164.177 19.504C164.241 19.7173 164.273 19.984 164.273 20.304V32.912C164.273 33.2107 164.241 33.4667 164.177 33.68C164.113 33.8933 163.975 34.0533 163.761 34.16C163.569 34.2667 163.271 34.32 162.865 34.32ZM162.865 14.992C162.396 14.992 162.044 14.928 161.809 14.8C161.575 14.6507 161.415 14.448 161.329 14.192C161.265 13.936 161.233 13.6373 161.233 13.296C161.233 12.9547 161.276 12.6667 161.361 12.432C161.447 12.176 161.607 11.9947 161.841 11.888C162.076 11.76 162.428 11.696 162.897 11.696C163.345 11.696 163.687 11.76 163.921 11.888C164.156 12.016 164.305 12.208 164.369 12.464C164.455 12.72 164.497 13.0187 164.497 13.36C164.497 13.7013 164.455 14 164.369 14.256C164.305 14.4907 164.156 14.672 163.921 14.8C163.687 14.928 163.335 14.992 162.865 14.992Z" fill="#F1F1F1"/>
<circle cx="17.5667" cy="14.9222" r="14.9222" fill="#F29812"/>
<path d="M2.64444 24.5555L5.28889 34H0L2.64444 24.5555Z" fill="#D9D9D9"/>
<path d="M3.40002 21.9111H40.0445L6.42224 34L3.40002 21.9111Z" fill="#D9D9D9"/>
<path d="M43.0667 34L6.42221 34L40.0444 21.9111L43.0667 34Z" fill="#D9D9D9"/>
<path d="M9.8222 24.5555H38.9111L39.2889 26.0667H10.2L9.8222 24.5555Z" fill="#333333"/>
<path d="M8.3111 29.8445H33.6222L34 31.3556H8.68888L8.3111 29.8445Z" fill="#333333"/>
</svg>
